<svg width="24" height="24" viewBox="0 0 24 24" fill="none" xmlns="http://www.w3.org/2000/svg">
<path fill-rule="evenodd" clip-rule="evenodd" d="M12.0004 12.0003C13.8959 10.054 14.3643 7.12679 13.1708 4.68622C13.0962 4.50854 13.1302 4.30377 13.2584 4.15982C13.3865 4.01586 13.586 3.95834 13.7711 4.01194C15.1966 4.37939 16.4979 5.12171 17.5397 6.16183C20.7641 9.30312 20.8322 14.4634 17.6917 17.6886C14.4667 20.8294 9.30649 20.7618 6.16493 17.5376C5.1242 16.4965 4.38147 15.1955 4.01403 13.77C3.96016 13.5846 4.01776 13.3848 4.16205 13.2565C4.30633 13.1283 4.51153 13.0945 4.68931 13.1698C7.12881 14.3627 10.0547 13.8946 12.0004 12.0003Z" stroke="black" stroke-width="1.5" stroke-linecap="round" stroke-linejoin="round"/>
</svg>
